USFL
nRows=257
nColumns=2
inDegrees=yes
endheader
time	tib_ant_r	
3.19355	 91.359542	
3.22681	 91.358328	
3.26008	 91.339083	
3.29335	 91.354780	
3.32661	 91.361846	
3.35988	 91.365120	
3.39315	 91.369631	
3.42641	 91.366524	
3.45968	 91.351062	
3.49294	 91.336974	
3.52621	 91.337918	
3.55948	 91.328861	
3.59274	 91.340377	
3.62601	 91.348808	
3.65927	 91.340683	
3.69254	 91.323881	
3.72581	 91.328070	
3.75907	 91.316727	
3.79234	 91.316064	
3.8256	 91.314687	
3.85887	 91.304463	
3.89214	 91.314548	
3.9254	 91.307986	
3.95867	 91.316932	
3.99194	 91.326014	
4.0252	 91.333044	
4.05847	 91.337303	
4.09173	 91.336877	
4.125	 91.332907	
4.15827	 91.335625	
4.19153	 91.325094	
4.2248	 91.330691	
4.25806	 91.335416	
4.29133	 91.306718	
4.3246	 91.291138	
4.35786	 91.279729	
4.39113	 91.198731	
4.4244	 91.061566	
4.45766	 90.694187	
4.49093	 90.401843	
4.52419	 90.347942	
4.55746	 90.052857	
4.59073	 89.769445	
4.62399	 89.664002	
4.65726	 89.382512	
4.69052	 89.326926	
4.72379	 89.071860	
4.75706	 88.851564	
4.79032	 88.747982	
4.82359	 88.551986	
4.85685	 88.276265	
4.89012	 88.158412	
4.92339	 87.939815	
4.95665	 87.708082	
4.98992	 87.337123	
5.02319	 86.996675	
5.05645	 86.818062	
5.08972	 86.627189	
5.12298	 86.310171	
5.15625	 86.232346	
5.18952	 86.064495	
5.22278	 85.838461	
5.25605	 85.651086	
5.28931	 85.294278	
5.32258	 85.105528	
5.35585	 84.797128	
5.38911	 84.671975	
5.42238	 84.495942	
5.45565	 84.304957	
5.48891	 84.214252	
5.52218	 84.136555	
5.55544	 84.400227	
5.58871	 84.609075	
5.62198	 84.849219	
5.65524	 85.108899	
5.68851	 85.137305	
5.72177	 85.563885	
5.75504	 85.834069	
5.78831	 85.914198	
5.82157	 85.912927	
5.85484	 85.818909	
5.8881	 85.775207	
5.92137	 85.625864	
5.95464	 85.497710	
5.9879	 85.403290	
6.02117	 85.317625	
6.05444	 85.242130	
6.0877	 85.016618	
6.12097	 84.930011	
6.15423	 84.724739	
6.1875	 84.513147	
6.22077	 84.238277	
6.25403	 84.111505	
6.2873	 84.042822	
6.32056	 84.005848	
6.35383	 83.942507	
6.3871	 83.861541	
6.42036	 83.804500	
6.45363	 83.550446	
6.4869	 83.391088	
6.52016	 83.296367	
6.55343	 83.161189	
6.58669	 82.977031	
6.61996	 82.856908	
6.65323	 82.781304	
6.68649	 82.654250	
6.71976	 82.490851	
6.75302	 82.336205	
6.78629	 82.011556	
6.81956	 82.020384	
6.85282	 81.912186	
6.88609	 81.875924	
6.91935	 81.866577	
6.95262	 81.832448	
6.98589	 81.857194	
7.01915	 81.857718	
7.05242	 81.861886	
7.08569	 81.820181	
7.11895	 81.828901	
7.15222	 81.751244	
7.18548	 81.739330	
7.21875	 81.823525	
7.25202	 81.936271	
7.28528	 81.992004	
7.31855	 82.003817	
7.35181	 82.002854	
7.38508	 82.101243	
7.41835	 82.259640	
7.45161	 82.378905	
7.48488	 82.425446	
7.51815	 82.436072	
7.55141	 82.440931	
7.58468	 82.404888	
7.61794	 82.387384	
7.65121	 82.381371	
7.68448	 82.376505	
7.71774	 82.349139	
7.75101	 82.393667	
7.78427	 82.490135	
7.81754	 82.483582	
7.85081	 82.501417	
7.88407	 82.487512	
7.91734	 82.549790	
7.9506	 82.660316	
7.98387	 82.642834	
8.01714	 82.768880	
8.0504	 82.821148	
8.08367	 82.872578	
8.11694	 82.869817	
8.1502	 82.857672	
8.18347	 82.801335	
8.21673	 82.926533	
8.25	 83.034507	
8.28327	 83.021696	
8.31653	 83.006785	
8.3498	 82.993730	
8.38306	 83.046831	
8.41633	 83.100946	
8.4496	 83.147375	
8.48286	 83.159537	
8.51613	 83.157176	
8.5494	 83.147402	
8.58266	 83.216978	
8.61593	 83.258085	
8.64919	 83.331275	
8.68246	 83.411765	
8.71573	 83.460542	
8.74899	 83.463955	
8.78226	 83.479923	
8.81552	 83.518261	
8.84879	 83.613156	
8.88206	 83.683651	
8.91532	 83.675589	
8.94859	 83.681392	
8.98185	 83.685762	
9.01512	 83.726038	
9.04839	 83.769442	
9.08165	 83.785782	
9.11492	 83.798375	
9.14819	 83.818170	
9.18145	 83.834981	
9.21472	 83.870259	
9.24798	 83.865058	
9.28125	 83.798809	
9.31452	 83.706759	
9.34778	 83.742632	
9.38105	 83.865131	
9.41431	 83.892346	
9.44758	 83.909584	
9.48085	 83.934970	
9.51411	 84.036453	
9.54738	 84.070585	
9.58065	 84.127429	
9.61391	 84.131946	
9.64718	 84.174896	
9.68044	 84.514914	
9.71371	 84.732838	
9.74698	 85.097385	
9.78024	 85.308244	
9.81351	 85.532978	
9.84677	 85.607751	
9.88004	 85.737372	
9.91331	 85.874078	
9.94657	 85.886647	
9.97984	 86.065426	
10.0131	 85.993889	
10.0464	 86.627954	
10.0796	 86.643583	
10.1129	 86.762592	
10.1462	 87.626860	
10.1794	 90.377985	
10.2127	 90.674048	
10.246	 91.138507	
10.2792	 91.390937	
10.3125	 91.646669	
10.3458	 92.000730	
10.379	 92.468422	
10.4123	 92.766698	
10.4456	 92.905884	
10.4788	 93.145705	
10.5121	 93.423811	
10.5454	 93.520928	
10.5786	 93.661151	
10.6119	 93.772009	
10.6452	 93.807755	
10.6784	 93.896429	
10.7117	 94.051256	
10.745	 94.024209	
10.7782	 93.940815	
10.8115	 93.872333	
10.8448	 93.769646	
10.878	 93.764398	
10.9113	 93.707807	
10.9446	 93.613544	
10.9778	 93.515977	
11.0111	 93.457246	
11.0444	 93.296687	
11.0776	 93.200592	
11.1109	 93.000105	
11.1442	 92.923661	
11.1774	 92.890524	
11.2107	 92.886093	
11.244	 92.882553	
11.2772	 92.879134	
11.3105	 92.885324	
11.3437	 92.884852	
11.377	 92.878278	
11.4103	 92.881464	
11.4435	 92.875156	
11.4768	 92.849304	
11.5101	 92.843180	
11.5433	 92.836248	
11.5766	 92.826513	
11.6099	 92.819927	
11.6431	 92.810709	
11.6764	 92.800850	
11.7097	 92.792213	
